<svg id="Gradient" height="512" viewBox="0 0 512 512" width="512" xmlns="http://www.w3.org/2000/svg" xmlns:xlink="http://www.w3.org/1999/xlink"><linearGradient id="linear-gradient" gradientUnits="userSpaceOnUse" x1="256" x2="256" y1="496" y2="8"><stop offset="0" stop-color="#12bee5"/><stop offset=".5" stop-color="#c071e9"/><stop offset="1" stop-color="#f24f5a"/></linearGradient><path d="m144 224h64a8 8 0 0 0 8-8v-60.686l13.657-13.657a8 8 0 0 0 -11.314-11.314l-13.657 13.657h-60.686a8 8 0 0 0 -8 8v64a8 8 0 0 0 8 8zm56-16h-48v-36.686l18.343 18.343a8 8 0 0 0 11.314 0l18.343-18.343zm-24-35.313-12.686-12.687h25.372zm56 27.313a8 8 0 0 1 8-8h136a8 8 0 0 1 0 16h-136a8 8 0 0 1 -8-8zm152 48a8 8 0 0 1 -8 8h-240a8 8 0 0 1 0-16h240a8 8 0 0 1 8 8zm0 32a8 8 0 0 1 -8 8h-240a8 8 0 0 1 0-16h240a8 8 0 0 1 8 8zm0 32a8 8 0 0 1 -8 8h-240a8 8 0 0 1 0-16h240a8 8 0 0 1 8 8zm0 48a8 8 0 0 1 -8 8h-32a7.994 7.994 0 0 1 -3.578-.845l-10.842-5.421-3.923 3.923a8 8 0 0 1 -11.314 0l-10.343-10.344-10.343 10.344a8 8 0 0 1 -11.314-11.314l16-16a8 8 0 0 1 11.314 0l10.343 10.344 2.343-2.344a8 8 0 0 1 9.235-1.5l14.311 7.157h30.111a8 8 0 0 1 8 8zm112-344h-48a8 8 0 0 0 -8 8v9.061l-47.637 6.806-134.53-31.654a8 8 0 0 0 -4.705.32l-186.5 71.731a30.73 30.73 0 0 0 18.789 58.417l2.583-.674v205.981l-16-.011v-7.977a8 8 0 0 0 -8-8h-48a8 8 0 0 0 -8 8v144a8 8 0 0 0 8 8h48a8 8 0 0 0 8-8v-9.062l47.637-6.805 134.53 31.654a8 8 0 0 0 4.705-.32l186.5-71.731a30.73 30.73 0 0 0 -18.788-58.417l-2.584.674v-205.981l16 .011v7.977a8 8 0 0 0 8 8h48a8 8 0 0 0 8-8v-144a8 8 0 0 0 -8-8zm-440 456h-32v-128h32zm374.623-91.2a14.73 14.73 0 0 1 9 28l-184.2 70.844-133.6-31.434a7.973 7.973 0 0 0 -2.964-.133l-46.859 6.699v-94.8l31.994.023c.135-.012.286 0 .429-.011l137.116-7.256a10.106 10.106 0 0 1 2.956 19.9l-78.435 19.607a8 8 0 0 0 3.88 15.522l31.952-7.988 59.137 23.655a8 8 0 0 0 4.991.313zm-166.096 26.8-36.127-14.454 19.972-4.994a26.106 26.106 0 0 0 -7.659-51.4l-136.713 7.237v-210.156l143.473-37.428 36.127 14.449-19.973 4.994a26.1 26.1 0 0 0 6.351 51.43c.434 0 .871-.01 1.308-.032l136.714-7.235v210.156zm143.05-263.584-137.116 7.256a10.106 10.106 0 0 1 -2.956-19.9l78.435-19.608a8 8 0 0 0 -3.88-15.522l-31.953 7.988-59.136-23.658a7.991 7.991 0 0 0 -4.991-.313l-164.603 42.941a14.73 14.73 0 0 1 -9.006-28l184.2-70.844 133.6 31.434a8.014 8.014 0 0 0 2.964.133l46.865-6.698v94.8s-32.279-.025-32.423-.014zm80.423 15.984h-32v-128h32z" fill="url(#linear-gradient)"/></svg>