<svg height="464pt" viewBox="0 0 464 464" width="464pt" xmlns="http://www.w3.org/2000/svg"><path d="m240 216h-16v-24c0-13.253906-10.746094-24-24-24h-64c-22.089844 0-40-17.910156-40-40s17.910156-40 40-40h192c13.253906 0 24-10.746094 24-24s-10.746094-24-24-24h-208v-16h208c22.089844 0 40 17.910156 40 40s-17.910156 40-40 40h-192c-13.253906 0-24 10.746094-24 24s10.746094 24 24 24h64c22.082031.027344 39.972656 17.917969 40 40zm0 0" fill="#354468"/><path d="m216 208h32v40h-32zm0 0" fill="#bf5b00"/><path d="m16 240h432c8.835938 0 16 7.164062 16 16v192c0 8.835938-7.164062 16-16 16h-432c-8.835938 0-16-7.164062-16-16v-192c0-8.835938 7.164062-16 16-16zm0 0" fill="#dce1ea"/><path d="m368 336h48c8.835938 0 16 7.164062 16 16s-7.164062 16-16 16h-48c-8.835938 0-16-7.164062-16-16s7.164062-16 16-16zm0 0" fill="#e38100"/><path d="m176 400h112c8.835938 0 16 7.164062 16 16s-7.164062 16-16 16h-112c-8.835938 0-16-7.164062-16-16s7.164062-16 16-16zm0 0" fill="#e38100"/><path d="m128 32c0-17.671875-14.328125-32-32-32h-64v64h64c17.671875 0 32-14.328125 32-32zm0 0" fill="#9196a9"/><path d="m0 8h32v48h-32zm0 0" fill="#bec3d1"/><path d="m48 400c8.835938 0 16 7.164062 16 16s-7.164062 16-16 16-16-7.164062-16-16 7.164062-16 16-16zm0 0" fill="#9196a9"/><path d="m48 336c8.835938 0 16 7.164062 16 16s-7.164062 16-16 16-16-7.164062-16-16 7.164062-16 16-16zm0 0" fill="#9196a9"/><path d="m112 336c8.835938 0 16 7.164062 16 16s-7.164062 16-16 16-16-7.164062-16-16 7.164062-16 16-16zm0 0" fill="#9196a9"/><path d="m176 336c8.835938 0 16 7.164062 16 16s-7.164062 16-16 16-16-7.164062-16-16 7.164062-16 16-16zm0 0" fill="#9196a9"/><path d="m240 336c8.835938 0 16 7.164062 16 16s-7.164062 16-16 16-16-7.164062-16-16 7.164062-16 16-16zm0 0" fill="#9196a9"/><path d="m304 336c8.835938 0 16 7.164062 16 16s-7.164062 16-16 16-16-7.164062-16-16 7.164062-16 16-16zm0 0" fill="#9196a9"/><path d="m72 272c8.835938 0 16 7.164062 16 16s-7.164062 16-16 16-16-7.164062-16-16 7.164062-16 16-16zm0 0" fill="#e38100"/><g fill="#9196a9"><path d="m136 272c8.835938 0 16 7.164062 16 16s-7.164062 16-16 16-16-7.164062-16-16 7.164062-16 16-16zm0 0"/><path d="m200 272c8.835938 0 16 7.164062 16 16s-7.164062 16-16 16-16-7.164062-16-16 7.164062-16 16-16zm0 0"/><path d="m264 272c8.835938 0 16 7.164062 16 16s-7.164062 16-16 16-16-7.164062-16-16 7.164062-16 16-16zm0 0"/><path d="m328 272c8.835938 0 16 7.164062 16 16s-7.164062 16-16 16-16-7.164062-16-16 7.164062-16 16-16zm0 0"/><path d="m392 272c8.835938 0 16 7.164062 16 16s-7.164062 16-16 16-16-7.164062-16-16 7.164062-16 16-16zm0 0"/><path d="m112 400c8.835938 0 16 7.164062 16 16s-7.164062 16-16 16-16-7.164062-16-16 7.164062-16 16-16zm0 0"/><path d="m352 400c8.835938 0 16 7.164062 16 16s-7.164062 16-16 16-16-7.164062-16-16 7.164062-16 16-16zm0 0"/><path d="m416 400c8.835938 0 16 7.164062 16 16s-7.164062 16-16 16-16-7.164062-16-16 7.164062-16 16-16zm0 0"/></g></svg>