<?xml version="1.0" encoding="iso-8859-1"?>
<!-- Generator: Adobe Illustrator 19.0.0, SVG Export Plug-In . SVG Version: 6.00 Build 0)  -->
<svg version="1.1" id="Capa_1" xmlns="http://www.w3.org/2000/svg" xmlns:xlink="http://www.w3.org/1999/xlink" x="0px" y="0px"
	 viewBox="0 0 512 512" style="enable-background:new 0 0 512 512;" xml:space="preserve">
<path style="fill:#1685FB;" d="M382.062,20.35v126.847c0,3.363-2.726,6.089-6.089,6.089h-14.16c-2.385,0-4.551-1.392-5.54-3.562
	l-12.752-27.961c-6.807-14.929-17.663-27.193-30.913-35.725c-0.423-0.27-0.833-0.528-1.256-0.798
	c-12.822-7.918-27.797-12.412-43.489-12.521c-27.855-0.192-50.648,22.584-50.648,50.44v261.59c0,28.296,16.525,53.987,42.274,65.723
	l33.757,15.382c2.171,0.989,3.564,3.155,3.564,5.541v14.171c0,3.363-2.726,6.089-6.089,6.089H91.341
	c-3.363,0-6.089-2.726-6.089-6.089v-14.17c0-2.386,1.394-4.552,3.565-5.541l33.768-15.382
	c25.738-11.736,42.262-37.427,42.262-65.723V122.784c0-13.825-5.598-26.348-14.659-35.408c-9.06-9.06-21.571-14.659-35.396-14.659
	c-32.826,0-62.636,19.177-76.25,49.046l-12.741,27.959c-0.989,2.171-3.155,3.564-5.541,3.564H6.089
	c-3.363,0-6.089-2.726-6.089-6.089V26.439c0-3.363,2.726-6.089,6.089-6.089H382.062z"/>
<g>
	<path style="fill:#364EC6;" d="M259.488,450.471l33.757,15.382c2.171,0.989,3.564,3.155,3.564,5.541v14.171
		c0,3.363-2.726,6.089-6.089,6.089H91.341c-3.363,0-6.089-2.726-6.089-6.089v-14.17c0-2.386,1.394-4.552,3.565-5.541l33.768-15.382
		c25.738-11.736,42.262-37.427,42.262-65.723v-79.982c19.881-13.814,37.227-28.414,52.367-43.448v123.43
		C217.214,413.045,233.739,438.735,259.488,450.471z"/>
	<path style="fill:#364EC6;" d="M382.062,20.35v126.847c0,3.363-2.726,6.089-6.089,6.089h-14.16c-2.385,0-4.551-1.392-5.54-3.562
		l-12.752-27.961c-6.807-14.929-17.663-27.193-30.913-35.725c-0.423-0.27-0.833-0.528-1.256-0.798
		c4.753-24.517,6.361-46.71,6.502-64.89L382.062,20.35L382.062,20.35z"/>
</g>
<path style="fill:#1685FB;" d="M504.388,12.742h-58.681c-4.204,0-7.612,3.407-7.612,7.611s3.407,7.611,7.612,7.611h51.069v42.425
	h-27.598c-4.204,0-7.611,3.407-7.611,7.611s3.407,7.611,7.611,7.611h27.598v44.111h-27.598c-4.204,0-7.611,3.407-7.611,7.611
	s3.407,7.611,7.611,7.611h27.598v44.11h-27.598c-4.204,0-7.611,3.407-7.611,7.611s3.407,7.611,7.611,7.611h27.598v44.11h-51.069
	c-4.204,0-7.612,3.407-7.612,7.611c0,4.204,3.407,7.612,7.612,7.612h51.069v44.11h-27.598c-4.204,0-7.611,3.407-7.611,7.612
	s3.407,7.611,7.611,7.611h27.598v44.11h-27.598c-4.204,0-7.611,3.407-7.611,7.612s3.407,7.611,7.611,7.611h27.598v44.111h-27.598
	c-4.204,0-7.611,3.407-7.611,7.612s3.407,7.612,7.611,7.612h27.598v42.425h-51.069c-4.204,0-7.612,3.407-7.612,7.611
	s3.407,7.612,7.612,7.612h58.681c4.204,0,7.612-3.407,7.612-7.612V20.354C512,16.15,508.593,12.742,504.388,12.742z"/>
<g>
</g>
<g>
</g>
<g>
</g>
<g>
</g>
<g>
</g>
<g>
</g>
<g>
</g>
<g>
</g>
<g>
</g>
<g>
</g>
<g>
</g>
<g>
</g>
<g>
</g>
<g>
</g>
<g>
</g>
</svg>
