<?xml version="1.0" encoding="iso-8859-1"?>
<!-- Generator: Adobe Illustrator 16.0.0, SVG Export Plug-In . SVG Version: 6.00 Build 0)  -->
<!DOCTYPE svg PUBLIC "-//W3C//DTD SVG 1.1//EN" "http://www.w3.org/Graphics/SVG/1.1/DTD/svg11.dtd">
<svg version="1.1" id="Capa_1" xmlns="http://www.w3.org/2000/svg" xmlns:xlink="http://www.w3.org/1999/xlink" x="0px" y="0px"
	 width="93.684px" height="93.683px" viewBox="0 0 93.684 93.683" style="enable-background:new 0 0 93.684 93.683;"
	 xml:space="preserve">
<g>
	<g>
		<path d="M40.655,43.629c-2.67-5.509-5.893-11.272-9.227-18.153c6.102,0,9.126,0.025,13.678-0.006
			c12.123-0.083,20.357,3.042,25.542,15.494c0.5,1.202,1.022,2.649,1.022,2.649l22.013-0.018
			C89.617,24.338,74.188,8.289,57.324,8.143L0,8.072l12.286,23.8C20.293,45.391,23.132,43.719,40.655,43.629z"/>
		<path d="M70.648,52.791c-5.186,12.451-13.42,15.578-25.542,15.494c-4.552-0.031-7.576-0.005-13.678-0.005
			c3.334-6.882,6.557-12.646,9.227-18.153c-17.522-0.091-20.361-1.764-28.368,11.756L0,85.606l57.324,0.006
			c16.863-0.146,32.293-16.271,36.358-35.528l-22.012,0.059C71.671,50.142,71.148,51.589,70.648,52.791z"/>
	</g>
</g>
<g>
</g>
<g>
</g>
<g>
</g>
<g>
</g>
<g>
</g>
<g>
</g>
<g>
</g>
<g>
</g>
<g>
</g>
<g>
</g>
<g>
</g>
<g>
</g>
<g>
</g>
<g>
</g>
<g>
</g>
</svg>
