<svg id="Capa_1" enable-background="new 0 0 512 512" height="512" viewBox="0 0 512 512" width="512" xmlns="http://www.w3.org/2000/svg"><g><g><path d="m448.012 199.997h-56.808l40.169-40.169c21.871-21.871 21.871-57.33 0-79.201-21.87-21.87-57.33-21.87-79.201 0l-40.169 40.17v-56.809c0-30.93-25.074-56.004-56.004-56.004s-56.003 25.073-56.003 56.004v56.808l-40.169-40.17c-21.871-21.87-57.33-21.87-79.201 0-21.871 21.871-21.871 57.33 0 79.201l40.169 40.169h-56.807c-30.93 0-56.004 25.073-56.004 56.003s25.074 56.004 56.004 56.004h56.807l-40.168 40.169c-21.871 21.87-21.871 57.33 0 79.201 21.87 21.871 57.33 21.871 79.201 0l40.169-40.169v56.808c0 30.93 25.074 56.004 56.003 56.004s56.004-25.074 56.004-56.004v-56.808l40.169 40.169c21.871 21.871 57.33 21.871 79.201 0 21.871-21.87 21.871-57.33 0-79.201l-40.168-40.169h56.807c30.93 0 56.004-25.074 56.004-56.004-.001-30.929-25.075-56.002-56.005-56.002z" fill="#dcf8e1"/></g><g><path d="m80.391 431.609c-21.871-21.871-21.871-57.33 0-79.201l79.201-79.201c21.871-21.871 57.33-21.871 79.201 0 21.871 21.871 21.871 57.33 0 79.201l-79.201 79.201c-21.871 21.871-57.33 21.871-79.201 0z" fill="#00abd5"/></g><g><path d="m256 504.016c-30.93 0-56.004-25.074-56.004-56.004v-112.007c0-30.93 25.074-56.004 56.003-56.004 30.93 0 56.003 25.074 56.003 56.004v112.007c.002 30.93-25.072 56.004-56.002 56.004z" fill="#bef2f5"/></g><g><path d="m7.984 256c0-30.93 25.074-56.004 56.004-56.004h112.007c30.93 0 56.004 25.074 56.004 56.003 0 30.93-25.074 56.003-56.004 56.003h-112.007c-30.93.002-56.004-25.072-56.004-56.002z" fill="#bef2f5"/></g><g><path d="m273.207 238.793c-21.871-21.871-21.871-57.33 0-79.201l79.201-79.201c21.871-21.871 57.33-21.871 79.201 0 21.871 21.871 21.871 57.33 0 79.201l-79.201 79.201c-21.871 21.871-57.33 21.871-79.201 0z" fill="#dcf8e1"/></g><g><path d="m504.016 256c0-30.93-25.074-56.003-56.004-56.003h-56.808l40.169-40.169c21.871-21.871 21.871-57.33 0-79.201-21.87-21.87-57.33-21.87-79.201 0l-40.169 40.17v-56.809c0-30.93-25.074-56.004-56.004-56.004-8.368 0-16.278 1.886-23.408 5.176 2.372 10.76 11.935 18.825 23.408 18.825 17.646 0 32.002 14.356 32.002 32.002v80.005l24.001-23.197 1.371 32.569 55.769-55.769c12.485-12.473 32.779-12.466 45.257 0 12.477 12.481 12.477 32.783.004 45.261l-57.269 57.269 34.069-.129-23.197 24.001h80.005c17.646 0 32.002 14.356 32.002 32.002 0 11.473 8.065 21.036 18.825 23.408 3.292-7.129 5.178-15.039 5.178-23.407z" fill="#fff"/></g><g><path d="m256 239.983c-35.284 0-63.988-28.705-63.988-63.988v-112.007c0-35.283 28.704-63.988 63.988-63.988s63.988 28.705 63.988 63.988v112.007c0 35.283-28.704 63.988-63.988 63.988zm0-224.014c-26.478 0-48.02 21.541-48.02 48.019v112.007c0 26.478 21.542 48.019 48.02 48.019s48.02-21.541 48.02-48.019v-112.007c0-26.478-21.542-48.019-48.02-48.019z" fill="#00bebe"/></g><g><path d="m256 512c-35.284 0-63.988-28.705-63.988-63.988v-112.007c0-35.283 28.705-63.988 63.988-63.988s63.988 28.705 63.988 63.988v112.007c0 35.283-28.704 63.988-63.988 63.988zm0-224.014c-26.478 0-48.02 21.541-48.02 48.019v112.007c0 26.478 21.542 48.019 48.02 48.019s48.02-21.541 48.02-48.019v-112.007c0-26.478-21.542-48.019-48.02-48.019z" fill="#00bebe"/></g><g><path d="m448.012 319.988h-112.007c-35.283 0-63.987-28.705-63.987-63.988s28.705-63.988 63.987-63.988h112.007c35.283 0 63.988 28.705 63.988 63.988s-28.705 63.988-63.988 63.988zm-112.007-112.007c-26.478 0-48.019 21.541-48.019 48.019s21.541 48.019 48.019 48.019h112.007c26.478 0 48.02-21.541 48.02-48.019s-21.542-48.019-48.02-48.019z" fill="#00bebe"/></g><g><path d="m175.995 319.988h-112.007c-35.283 0-63.988-28.705-63.988-63.988s28.705-63.988 63.988-63.988h112.007c35.283 0 63.987 28.705 63.987 63.988s-28.704 63.988-63.987 63.988zm-112.007-112.007c-26.478 0-48.02 21.541-48.02 48.019s21.542 48.019 48.02 48.019h112.007c26.478 0 48.018-21.541 48.018-48.019s-21.541-48.019-48.018-48.019z" fill="#00bebe"/></g><g><path d="m312.572 263.416c-17.092 0-33.161-6.656-45.247-18.742-12.086-12.085-18.742-28.154-18.742-45.246s6.656-33.161 18.742-45.246l79.201-79.201c12.086-12.086 28.155-18.742 45.247-18.742s33.161 6.656 45.247 18.742 18.742 28.154 18.742 45.246-6.656 33.161-18.742 45.247l-79.201 79.201c-12.086 12.085-28.155 18.741-45.247 18.741zm79.201-191.208c-12.826 0-24.885 4.995-33.954 14.064l-79.201 79.201c-9.07 9.069-14.065 21.128-14.065 33.954s4.995 24.885 14.065 33.954v.001c9.069 9.069 21.128 14.064 33.954 14.064s24.885-4.995 33.954-14.064l79.201-79.201c9.07-9.07 14.065-21.128 14.065-33.955 0-12.826-4.995-24.885-14.065-33.954-9.069-9.069-21.128-14.064-33.954-14.064z" fill="#00bebe"/></g><g><path d="m120.227 455.732c-16.386 0-32.772-6.237-45.247-18.712-12.086-12.086-18.742-28.155-18.742-45.246 0-17.092 6.656-33.161 18.742-45.247l79.201-79.201c12.086-12.086 28.155-18.742 45.247-18.742s33.161 6.656 45.247 18.742 18.742 28.155 18.742 45.246c0 17.092-6.656 33.16-18.742 45.246l-79.201 79.201c-12.475 12.475-28.861 18.713-45.247 18.713zm79.201-191.179c-12.827 0-24.885 4.995-33.954 14.064l-79.201 79.201c-9.07 9.07-14.065 21.129-14.065 33.955 0 12.827 4.995 24.885 14.065 33.955 18.721 18.722 49.187 18.722 67.908 0l79.201-79.201c9.07-9.07 14.065-21.129 14.065-33.955s-4.995-24.885-14.065-33.955c-9.069-9.069-21.128-14.064-33.954-14.064z" fill="#00bebe"/></g><g><path d="m391.773 455.761c-17.092 0-33.161-6.655-45.247-18.741l-79.201-79.201c-12.086-12.086-18.742-28.155-18.742-45.246 0-17.092 6.656-33.16 18.742-45.246 12.086-12.086 28.155-18.742 45.247-18.742s33.161 6.656 45.247 18.742l79.201 79.201c12.086 12.086 18.742 28.155 18.742 45.246 0 17.092-6.656 33.161-18.743 45.247-12.085 12.084-28.154 18.74-45.246 18.74zm-79.201-191.208c-12.827 0-24.885 4.995-33.954 14.064-9.07 9.07-14.065 21.129-14.065 33.955s4.995 24.885 14.065 33.955l79.201 79.201c18.721 18.722 49.187 18.722 67.908 0 9.07-9.07 14.065-21.129 14.065-33.955 0-12.827-4.995-24.885-14.065-33.955l-79.201-79.201c-9.069-9.069-21.127-14.064-33.954-14.064z" fill="#00bebe"/></g><g><path d="m199.428 263.416c-17.092 0-33.161-6.656-45.247-18.742l-79.201-79.201c-12.086-12.086-18.742-28.155-18.742-45.247s6.656-33.161 18.742-45.246c12.086-12.085 28.155-18.742 45.247-18.742s33.161 6.656 45.247 18.742l79.201 79.201c12.086 12.086 18.742 28.154 18.742 45.246s-6.656 33.161-18.742 45.246c-12.086 12.087-28.155 18.743-45.247 18.743zm-79.201-191.208c-12.826 0-24.885 4.995-33.954 14.064-9.07 9.07-14.065 21.128-14.065 33.954 0 12.827 4.995 24.885 14.065 33.955l79.201 79.201c9.069 9.069 21.128 14.064 33.954 14.064s24.885-4.995 33.954-14.064c9.07-9.07 14.065-21.128 14.065-33.955 0-12.826-4.995-24.885-14.065-33.954l-79.201-79.201c-9.069-9.069-21.127-14.064-33.954-14.064z" fill="#00bebe"/></g><path d="m256 272.017c-2.292 0-4.554.127-6.784.363-1.418-1.749-2.927-3.44-4.541-5.054-4.578-4.578-9.729-8.373-15.29-11.326 5.56-2.953 10.712-6.748 15.29-11.326 12.086-12.086 18.742-28.154 18.742-45.246s-6.656-33.161-18.742-45.246l-79.201-79.201c-12.086-12.086-28.155-18.742-45.247-18.742s-33.161 6.656-45.247 18.741c-12.086 12.086-18.742 28.155-18.742 45.246 0 17.092 6.656 33.161 18.742 45.247l79.201 79.201c4.578 4.578 9.729 8.373 15.289 11.326-5.56 2.953-10.711 6.748-15.289 11.326l-79.201 79.201c-12.086 12.086-18.742 28.155-18.742 45.247s6.656 33.16 18.742 45.246c12.475 12.475 28.861 18.712 45.247 18.712s32.772-6.237 45.247-18.712l26.538-26.538v37.531c0 35.282 28.704 63.987 63.988 63.987s63.988-28.705 63.988-63.988v-112.007c0-35.283-28.704-63.988-63.988-63.988zm-8.553 40.555c0 12.826-4.995 24.885-14.065 33.955l-25.402 25.402v-35.924c0-21.569 14.296-39.858 33.908-45.9 3.631 6.839 5.559 14.505 5.559 22.467zm-161.174-158.39c-9.07-9.07-14.065-21.128-14.065-33.955 0-12.826 4.995-24.885 14.065-33.954 9.069-9.07 21.128-14.064 33.954-14.064s24.885 4.995 33.954 14.064l79.201 79.201c9.07 9.069 14.065 21.128 14.065 33.954s-4.995 24.885-14.065 33.955c-9.069 9.069-21.128 14.064-33.954 14.064-12.827 0-24.885-4.995-33.954-14.064zm67.908 271.546c-18.721 18.722-49.187 18.722-67.908 0-9.07-9.07-14.065-21.128-14.065-33.955 0-12.826 4.995-24.885 14.065-33.955l79.201-79.201c9.069-9.07 21.128-14.064 33.954-14.064 11.982 0 23.292 4.361 32.123 12.329-23.186 9.624-39.539 32.496-39.539 59.123v51.892zm149.839 22.284c0 26.478-21.542 48.019-48.02 48.019s-48.02-21.541-48.02-48.019v-53.5l36.694-36.694c12.086-12.086 18.742-28.155 18.742-45.246 0-8.552-1.667-16.847-4.845-24.516 25.287 1.341 45.449 22.334 45.449 47.949z" fill="#00abd5"/><path d="m448.012 192.012h-37.531l26.539-26.539c12.086-12.086 18.742-28.155 18.742-45.247s-6.656-33.161-18.742-45.246c-12.086-12.086-28.155-18.742-45.247-18.742s-33.161 6.656-45.247 18.742l-26.538 26.538v-37.53c0-35.283-28.704-63.988-63.988-63.988s-63.988 28.705-63.988 63.988v112.007c0 35.283 28.705 63.988 63.988 63.988 2.292 0 4.554-.127 6.784-.363 1.418 1.749 2.927 3.44 4.542 5.054 1.615 1.615 3.305 3.125 5.055 4.542-.236 2.23-.363 4.492-.363 6.784 0 35.283 28.705 63.988 63.987 63.988h112.007c35.283 0 63.988-28.705 63.988-63.988s-28.705-63.988-63.988-63.988zm-90.193-105.74c9.069-9.07 21.128-14.064 33.954-14.064 12.827 0 24.885 4.995 33.954 14.065 9.07 9.07 14.065 21.128 14.065 33.954 0 12.827-4.995 24.885-14.065 33.955l-37.83 37.831h-51.892c-6.561 0-12.892.996-18.855 2.838 1.842-5.963 2.838-12.295 2.838-18.855v-51.892zm-93.266 113.156c0-12.826 4.995-24.885 14.065-33.954l25.402-25.402v35.924c0 21.569-14.296 39.858-33.908 45.9-3.631-6.84-5.559-14.506-5.559-22.468zm71.452 8.553h35.923l-25.402 25.402c-9.069 9.069-21.128 14.064-33.954 14.064-7.963 0-15.628-1.928-22.467-5.558 6.042-19.613 24.331-33.908 45.9-33.908zm-128.025-31.986v-112.007c0-26.478 21.542-48.019 48.02-48.019s48.02 21.541 48.02 48.019v53.5l-36.694 36.694c-12.086 12.086-18.742 28.154-18.742 45.246 0 8.552 1.667 16.847 4.846 24.516-25.287-1.341-45.45-22.334-45.45-47.949zm240.032 128.024h-112.007c-25.615 0-46.607-20.161-47.948-45.448 7.669 3.179 15.964 4.845 24.515 4.845 17.092 0 33.161-6.656 45.247-18.742l36.693-36.693h53.5c26.478 0 48.02 21.541 48.02 48.019-.001 26.478-21.543 48.019-48.02 48.019z" fill="#00bebe"/><g><path d="m256 287.986c-17.637 0-31.986-14.349-31.986-31.986s14.349-31.986 31.986-31.986 31.986 14.349 31.986 31.986-14.349 31.986-31.986 31.986zm0-48.003c-8.832 0-16.018 7.185-16.018 16.017s7.185 16.017 16.018 16.017 16.017-7.185 16.017-16.017-7.185-16.017-16.017-16.017z" fill="#00bebe"/></g><g><path d="m504.016 263.984c-4.409 0-7.984-3.575-7.984-7.984 0-26.478-21.542-48.019-48.02-48.019h-56.807c-3.229 0-6.14-1.945-7.376-4.929s-.554-6.418 1.73-8.701l40.169-40.169c9.07-9.07 14.065-21.129 14.065-33.955 0-12.827-4.995-24.885-14.065-33.955-18.722-18.723-49.186-18.723-67.908 0l-40.169 40.169c-2.284 2.284-5.716 2.967-8.702 1.731-2.983-1.236-4.929-4.147-4.929-7.377v-56.807c0-26.478-21.542-48.019-48.02-48.019-4.409 0-7.984-3.575-7.984-7.984s3.575-7.985 7.984-7.985c35.284 0 63.988 28.705 63.988 63.988v37.532l26.538-26.539c24.949-24.949 65.544-24.949 90.493 0 12.086 12.086 18.742 28.155 18.742 45.246 0 17.092-6.656 33.161-18.742 45.247l-26.539 26.539h37.531c35.284-.001 63.989 28.704 63.989 63.987 0 4.41-3.575 7.984-7.984 7.984z" fill="#8cebaf"/></g><g><path d="m175.995 319.988h-112.007c-35.283 0-63.988-28.705-63.988-63.988s28.705-63.988 63.988-63.988h112.007c35.283 0 63.987 28.705 63.987 63.988s-28.704 63.988-63.987 63.988zm-112.007-112.007c-26.478 0-48.02 21.541-48.02 48.019s21.542 48.019 48.02 48.019h112.007c26.478 0 48.018-21.541 48.018-48.019s-21.541-48.019-48.018-48.019z" fill="#9c89c2"/></g><g><path d="m391.773 455.761c-17.092 0-33.161-6.655-45.247-18.741l-79.201-79.201c-12.086-12.086-18.742-28.155-18.742-45.246 0-17.092 6.656-33.16 18.742-45.246 12.086-12.086 28.155-18.742 45.247-18.742s33.161 6.656 45.247 18.742l79.201 79.201c12.086 12.086 18.742 28.155 18.742 45.246 0 17.092-6.656 33.161-18.743 45.247-12.085 12.084-28.154 18.74-45.246 18.74zm-79.201-191.208c-12.827 0-24.885 4.995-33.954 14.064-9.07 9.07-14.065 21.129-14.065 33.955s4.995 24.885 14.065 33.955l79.201 79.201c18.721 18.722 49.187 18.722 67.908 0 9.07-9.07 14.065-21.129 14.065-33.955 0-12.827-4.995-24.885-14.065-33.955l-79.201-79.201c-9.069-9.069-21.127-14.064-33.954-14.064z" fill="#9c89c2"/></g><g><path d="m256 512c-35.284 0-63.988-28.705-63.988-63.988v-37.532l-26.538 26.539c-12.087 12.086-28.155 18.742-45.247 18.742s-33.161-6.656-45.247-18.742c-12.086-12.085-18.742-28.154-18.742-45.246s6.656-33.161 18.743-45.247l26.538-26.539h-37.531c-35.283.001-63.988-28.704-63.988-63.987 0-4.41 3.575-7.984 7.984-7.984s7.984 3.575 7.984 7.984c0 26.478 21.542 48.019 48.02 48.019h56.807c3.229 0 6.14 1.945 7.376 4.929 1.236 2.983.554 6.418-1.73 8.701l-40.169 40.169c-9.07 9.07-14.065 21.128-14.065 33.955s4.995 24.885 14.064 33.955c9.07 9.07 21.129 14.064 33.955 14.064s24.885-4.995 33.954-14.064l40.169-40.169c2.283-2.283 5.717-2.968 8.702-1.731 2.983 1.236 4.929 4.147 4.929 7.377v56.808c0 26.478 21.542 48.019 48.02 48.019 4.409 0 7.984 3.575 7.984 7.984s-3.575 7.984-7.984 7.984z" fill="#283246"/></g><g><path d="m256 287.986c-17.637 0-31.986-14.349-31.986-31.986s14.349-31.986 31.986-31.986 31.986 14.349 31.986 31.986-14.349 31.986-31.986 31.986zm0-48.003c-8.832 0-16.018 7.185-16.018 16.017s7.185 16.017 16.018 16.017 16.017-7.185 16.017-16.017-7.185-16.017-16.017-16.017z" fill="#283246"/></g></g></svg>